{"title":"The Wronged Man (2010) DVDRip MKV FEEL-FREE","uid":5691548,"size":1248057900,"categoryP":"video","categoryS":"movies","magnet":"?xt=urn:btih:9f3494d42bda7bb5ff812028aee64a74e8acf927&amp;dn=The+Wronged+Man+%282010%29+DVDRip+MKV+FEEL-FREE&amp;tr=udp%3A%2F%2Ftracker.openbittorrent.com%3A80&amp;tr=udp%3A%2F%2Fopen.demonii.com%3A1337&amp;tr=udp%3A%2F%2Ftracker.coppersurfer.tk%3A6969&amp;tr=udp%3A%2F%2Fexodus.desync.com%3A6969","seeders":0,"leechers":1,"uploader":"hiest","files":8,"time":1279066725,"description":"Genre:Biography | Drama \nLanguage:English\nIMDb:http://www.imdb.com/title/tt1390543/\nSubtitles:English\nSource:DVD\n.............................................\nGeneral\nComplete name : The Wronged Man (2010) DVDRip MKV FEEL-FREE\nFormat : Matroska\nFile size : 1.16 GiB\nDuration : 1h 25mn\nOverall bit rate : 1 947 Kbps\n..............................................\nVideo\nID : 1\nFormat : MPEG-4 Visual\nFormat profile : AdvancedSimple@L5\nFormat settings, BVOP : Yes\nFormat settings, QPel : No\nFormat settings, GMC : No warppoints\nFormat settings, Matrix : Default (H.263)\nCodec ID : XVID\nCodec ID/Hint : XviD\nDuration : 1h 25mn\nBit rate : 1 525 Kbps\nWidth : 720 pixels\nHeight : 400 pixels\nDisplay aspect ratio : 16:9\nFrame rate : 25.000 fps\nResolution : 24 bits\nColorimetry : 4:2:0\nScan type : Progressive\nBits/(Pixel*Frame) : 0.212\nStream size : 932 MiB (78%)\nWriting library : XviD 1.2.1 (UTC 2008-12-04)\n................................................\nAudio\nID : 2\nFormat : AC-3\nFormat/Info : Audio Coding 3\nCodec ID : A_AC3\nDuration : 1h 25mn\nBit rate mode : Constant\nBit rate : 384 Kbps\nChannel(s) : 6 channels\nChannel positions : Front: L C R, Surround: L R, LFE\nSampling rate : 48.0 KHz\nStream size : 235 MiB (20%)\n................................................\nPlot:\nJanet Gregory (Ormond), a single mother with a haunting past, is a paralegal struggling to overcome doubts about Calvin Willis\n...................................................\n &lt;a href=&quot;\nhttp://thepiratebay.se/user/hiest&quot; rel=&quot;nofollow&quot; target=&quot;_NEW&quot;&gt;\nhttp://thepiratebay.se/user/hiest&lt;/a&gt;\n\n.......................................................","torrent":{"xt":"urn:btih:9f3494d42bda7bb5ff812028aee64a74e8acf927","amp;dn":"The+Wronged+Man+%282010%29+DVDRip+MKV+FEEL-FREE","amp;tr":["udp%3A%2F%2Ftracker.openbittorrent.com%3A80","udp%3A%2F%2Fopen.demonii.com%3A1337","udp%3A%2F%2Ftracker.coppersurfer.tk%3A6969","udp%3A%2F%2Fexodus.desync.com%3A6969"],"infoHash":"9f3494d42bda7bb5ff812028aee64a74e8acf927","infoHashBuffer":{"type":"Buffer","data":[159,52,148,212,43,218,123,181,255,129,32,40,174,230,74,116,232,172,249,39]},"announce":[],"urlList":[]}}